<svg width="201" height="88" viewBox="0 0 201 88" fill="none" xmlns="http://www.w3.org/2000/svg">
<path d="M86.048 35.432C90.44 35.432 94.076 33.848 96.452 30.932L92.708 27.476C91.016 29.456 88.892 30.464 86.372 30.464C81.656 30.464 78.308 27.152 78.308 22.4C78.308 17.648 81.656 14.336 86.372 14.336C88.892 14.336 91.016 15.344 92.708 17.288L96.452 13.832C94.076 10.952 90.44 9.368 86.084 9.368C78.236 9.368 72.404 14.804 72.404 22.4C72.404 29.996 78.236 35.432 86.048 35.432ZM122.71 35L117.058 26.9C120.334 25.496 122.242 22.724 122.242 18.944C122.242 13.292 118.03 9.8 111.298 9.8H100.39V35H106.222V27.98H111.298H111.586L116.446 35H122.71ZM116.338 18.944C116.338 21.68 114.538 23.336 110.974 23.336H106.222V14.552H110.974C114.538 14.552 116.338 16.172 116.338 18.944ZM139.067 35.432C146.987 35.432 152.855 29.924 152.855 22.4C152.855 14.876 146.987 9.368 139.067 9.368C131.111 9.368 125.279 14.912 125.279 22.4C125.279 29.888 131.111 35.432 139.067 35.432ZM139.067 30.464C134.567 30.464 131.183 27.188 131.183 22.4C131.183 17.612 134.567 14.336 139.067 14.336C143.567 14.336 146.951 17.612 146.951 22.4C146.951 27.188 143.567 30.464 139.067 30.464ZM165.518 35.432C172.718 35.432 176.21 31.832 176.21 27.62C176.21 18.368 161.558 21.572 161.558 16.928C161.558 15.344 162.89 14.048 166.346 14.048C168.578 14.048 170.99 14.696 173.33 16.028L175.13 11.6C172.79 10.124 169.55 9.368 166.382 9.368C159.218 9.368 155.762 12.932 155.762 17.216C155.762 26.576 170.414 23.336 170.414 28.052C170.414 29.6 169.01 30.752 165.554 30.752C162.53 30.752 159.362 29.672 157.238 28.124L155.258 32.516C157.49 34.244 161.522 35.432 165.518 35.432ZM188.475 35.432C195.675 35.432 199.167 31.832 199.167 27.62C199.167 18.368 184.515 21.572 184.515 16.928C184.515 15.344 185.847 14.048 189.303 14.048C191.535 14.048 193.947 14.696 196.287 16.028L198.087 11.6C195.747 10.124 192.507 9.368 189.339 9.368C182.175 9.368 178.719 12.932 178.719 17.216C178.719 26.576 193.371 23.336 193.371 28.052C193.371 29.6 191.967 30.752 188.511 30.752C185.487 30.752 182.319 29.672 180.195 28.124L178.215 32.516C180.447 34.244 184.479 35.432 188.475 35.432ZM84.896 53.8H73.988V79H79.82V72.052H84.896C91.628 72.052 95.84 68.56 95.84 62.944C95.84 57.292 91.628 53.8 84.896 53.8ZM84.572 67.3H79.82V58.552H84.572C88.136 58.552 89.936 60.172 89.936 62.944C89.936 65.68 88.136 67.3 84.572 67.3ZM112.559 79.432C120.479 79.432 126.347 73.924 126.347 66.4C126.347 58.876 120.479 53.368 112.559 53.368C104.603 53.368 98.7712 58.912 98.7712 66.4C98.7712 73.888 104.603 79.432 112.559 79.432ZM112.559 74.464C108.059 74.464 104.675 71.188 104.675 66.4C104.675 61.612 108.059 58.336 112.559 58.336C117.059 58.336 120.443 61.612 120.443 66.4C120.443 71.188 117.059 74.464 112.559 74.464ZM130.73 79H136.562V53.8H130.73V79ZM159.895 53.8V69.1L147.367 53.8H142.543V79H148.303V63.7L160.867 79H165.655V53.8H159.895ZM176.837 79H182.669V58.552H190.733V53.8H168.773V58.552H176.837V79Z" fill="white"/>
<rect y="10" width="60" height="68" rx="10" fill="white"/>
<path d="M31.048 55.432C35.44 55.432 39.076 53.848 41.452 50.932L37.708 47.476C36.016 49.456 33.892 50.464 31.372 50.464C26.656 50.464 23.308 47.152 23.308 42.4C23.308 37.648 26.656 34.336 31.372 34.336C33.892 34.336 36.016 35.344 37.708 37.288L41.452 33.832C39.076 30.952 35.44 29.368 31.084 29.368C23.236 29.368 17.404 34.804 17.404 42.4C17.404 49.996 23.236 55.432 31.048 55.432Z" fill="#7D17AD"/>
<circle cx="29" cy="64" r="3" fill="#7D17AD"/>
</svg>
